<?xml version="1.0" standalone="no"?>
<!DOCTYPE svg PUBLIC "-//W3C//DTD SVG 20010904//EN"
 "http://www.w3.org/TR/2001/REC-SVG-20010904/DTD/svg10.dtd">
<svg version="1.0" xmlns="http://www.w3.org/2000/svg"
 width="512.000000pt" height="512.000000pt" viewBox="0 0 512.000000 512.000000"
 preserveAspectRatio="xMidYMid meet">
<metadata>
Created by potrace 1.14, written by Peter Selinger 2001-2017
</metadata>
<g transform="translate(0.000000,512.000000) scale(0.100000,-0.100000)"
fill="#000000" stroke="none">
<path d="M2378 5115 c-2 -1 -34 -5 -73 -9 -38 -3 -97 -10 -130 -16 -33 -6 -76
-13 -95 -16 -114 -18 -426 -112 -499 -150 -14 -8 -29 -14 -33 -14 -9 0 -205
-97 -263 -130 -250 -141 -544 -393 -710 -605 -16 -21 -39 -50 -51 -64 -134
-166 -277 -429 -377 -697 -18 -47 -74 -237 -81 -274 -2 -14 -9 -46 -15 -71 -6
-25 -13 -61 -15 -80 -3 -19 -7 -50 -10 -69 -17 -99 -23 -224 -21 -400 3 -190
10 -271 41 -435 16 -85 60 -262 77 -305 3 -8 15 -44 28 -80 175 -520 575
-1015 1062 -1316 254 -157 598 -291 867 -338 19 -3 44 -8 56 -10 12 -2 45 -7
75 -11 30 -4 65 -9 79 -11 51 -9 438 -11 505 -3 39 5 93 11 120 15 94 11 330
63 385 85 14 5 34 11 45 13 70 14 328 127 466 204 176 97 387 255 524 389 111
110 154 158 281 315 7 10 26 37 40 60 15 24 30 45 33 48 12 9 118 193 164 285
91 180 183 447 212 614 3 19 8 37 10 41 2 3 7 33 10 65 4 33 9 63 11 66 24 42
24 630 -1 701 -2 7 -6 31 -9 53 -27 236 -155 603 -296 850 -85 148 -184 291
-265 385 -132 151 -245 263 -345 340 -24 19 -53 43 -65 53 -49 44 -256 174
-377 237 -264 137 -529 222 -828 266 -97 14 -520 29 -532 19z"/>
</g>
</svg>
